<svg width="610" height="576" viewBox="0 0 610 576" fill="none" xmlns="http://www.w3.org/2000/svg">
<path d="M2 194.5L105 102.179M447.5 60.5H345M105 102.179L151.5 60.5H345M105 102.179L151.5 148H522.5M345 60.5L394.5 7.5H572" stroke="black" stroke-width="5"/>
<path d="M5 275.5H164M588 275.5H285.5M164 275.5L235.5 210H444.5M164 275.5H285.5M285.5 275.5L348 341H522.5" stroke="black" stroke-width="5"/>
<path d="M5 357L64 405.25M478.5 453.5H400.5M64 405.25L123 453.5H229M64 405.25V500.5L254 569H366.5M229 453.5L319.5 388H606M229 453.5H400.5M400.5 453.5L512.5 531.5H587.5" stroke="black" stroke-width="5"/>
<circle cx="572.5" cy="7.5" r="7.5" fill="black"/>
<circle cx="365.5" cy="568.5" r="7.5" fill="black"/>
<circle cx="588.5" cy="531.5" r="7.5" fill="black"/>
<circle cx="477.5" cy="453.5" r="7.5" fill="black"/>
<circle cx="602.5" cy="387.5" r="7.5" fill="black"/>
<circle cx="517.5" cy="340.5" r="7.5" fill="black"/>
<circle cx="587.5" cy="275.5" r="7.5" fill="black"/>
<circle cx="439.5" cy="209.5" r="7.5" fill="black"/>
<circle cx="517.5" cy="148.5" r="7.5" fill="black"/>
<circle cx="446.5" cy="59.5" r="7.5" fill="black"/>
</svg>
